<svg width="28" height="28" viewBox="0 0 28 28" fill="none" xmlns="http://www.w3.org/2000/svg">
<path d="M3.49998 8.32378H5.16131C5.40367 9.06484 5.88202 9.71166 6.52716 10.1707C7.1723 10.6297 7.95078 10.8771 8.74998 10.8771C9.54918 10.8771 10.3277 10.6297 10.9728 10.1707C11.6179 9.71166 12.0963 9.06484 12.3386 8.32378H24.5C24.8094 8.32378 25.1061 8.20418 25.3249 7.99128C25.5437 7.77838 25.6666 7.48963 25.6666 7.18854C25.6666 6.88746 25.5437 6.5987 25.3249 6.3858C25.1061 6.1729 24.8094 6.0533 24.5 6.0533H12.3386C12.0963 5.31224 11.6179 4.66542 10.9728 4.20641C10.3277 3.7474 9.54918 3.5 8.74998 3.5C7.95078 3.5 7.1723 3.7474 6.52716 4.20641C5.88202 4.66542 5.40367 5.31224 5.16131 6.0533H3.49998C3.19056 6.0533 2.89381 6.1729 2.67502 6.3858C2.45623 6.5987 2.33331 6.88746 2.33331 7.18854C2.33331 7.48963 2.45623 7.77838 2.67502 7.99128C2.89381 8.20418 3.19056 8.32378 3.49998 8.32378ZM8.74998 5.76949C9.03841 5.76949 9.32036 5.85271 9.56019 6.00864C9.80001 6.16457 9.98693 6.38619 10.0973 6.64549C10.2077 6.90479 10.2366 7.19011 10.1803 7.46538C10.124 7.74065 9.98513 7.99351 9.78118 8.19196C9.57723 8.39042 9.31738 8.52557 9.03449 8.58033C8.7516 8.63508 8.45838 8.60698 8.1919 8.49958C7.92542 8.39217 7.69766 8.21029 7.53742 7.97692C7.37718 7.74356 7.29165 7.4692 7.29165 7.18854C7.29226 6.81237 7.44611 6.45178 7.71946 6.18578C7.99282 5.91979 8.3634 5.77009 8.74998 5.76949Z" fill="#3D4D55"/>
<path d="M24.5 19.6762H12.3386C12.0963 18.9352 11.6179 18.2883 10.9728 17.8293C10.3277 17.3703 9.54918 17.1229 8.74998 17.1229C7.95078 17.1229 7.1723 17.3703 6.52716 17.8293C5.88202 18.2883 5.40367 18.9352 5.16131 19.6762H3.49998C3.19056 19.6762 2.89381 19.7958 2.67502 20.0087C2.45623 20.2216 2.33331 20.5104 2.33331 20.8115C2.33331 21.1125 2.45623 21.4013 2.67502 21.6142C2.89381 21.8271 3.19056 21.9467 3.49998 21.9467H5.16131C5.40367 22.6878 5.88202 23.3346 6.52716 23.7936C7.1723 24.2526 7.95078 24.5 8.74998 24.5C9.54918 24.5 10.3277 24.2526 10.9728 23.7936C11.6179 23.3346 12.0963 22.6878 12.3386 21.9467H24.5C24.8094 21.9467 25.1061 21.8271 25.3249 21.6142C25.5437 21.4013 25.6666 21.1125 25.6666 20.8115C25.6666 20.5104 25.5437 20.2216 25.3249 20.0087C25.1061 19.7958 24.8094 19.6762 24.5 19.6762ZM8.74998 22.2305C8.46155 22.2305 8.1796 22.1473 7.93977 21.9914C7.69995 21.8354 7.51303 21.6138 7.40266 21.3545C7.29228 21.0952 7.2634 20.8099 7.31967 20.5346C7.37594 20.2593 7.51483 20.0065 7.71878 19.808C7.92273 19.6096 8.18258 19.4744 8.46547 19.4197C8.74836 19.3649 9.04158 19.393 9.30806 19.5004C9.57454 19.6078 9.8023 19.7897 9.96254 20.0231C10.1228 20.2564 10.2083 20.5308 10.2083 20.8115C10.2077 21.1876 10.0539 21.5482 9.7805 21.8142C9.50714 22.0802 9.13656 22.2299 8.74998 22.2305Z" fill="#3D4D55"/>
<path d="M24.5 12.8648H22.8386C22.5963 12.1237 22.1179 11.4769 21.4728 11.0179C20.8277 10.5589 20.0492 10.3115 19.25 10.3115C18.4508 10.3115 17.6723 10.5589 17.0272 11.0179C16.382 11.4769 15.9037 12.1237 15.6613 12.8648H3.49998C3.19056 12.8648 2.89381 12.9844 2.67502 13.1973C2.45623 13.4102 2.33331 13.6989 2.33331 14C2.33331 14.3011 2.45623 14.5898 2.67502 14.8027C2.89381 15.0156 3.19056 15.1352 3.49998 15.1352H15.6613C15.9037 15.8763 16.382 16.5231 17.0272 16.9821C17.6723 17.4411 18.4508 17.6885 19.25 17.6885C20.0492 17.6885 20.8277 17.4411 21.4728 16.9821C22.1179 16.5231 22.5963 15.8763 22.8386 15.1352H24.5C24.8094 15.1352 25.1061 15.0156 25.3249 14.8027C25.5437 14.5898 25.6666 14.3011 25.6666 14C25.6666 13.6989 25.5437 13.4102 25.3249 13.1973C25.1061 12.9844 24.8094 12.8648 24.5 12.8648ZM19.25 15.4191C18.9615 15.4191 18.6796 15.3358 18.4398 15.1799C18.2 15.024 18.013 14.8023 17.9027 14.543C17.7923 14.2838 17.7634 13.9984 17.8197 13.7232C17.8759 13.4479 18.0148 13.195 18.2188 12.9966C18.4227 12.7981 18.6826 12.663 18.9655 12.6082C19.2484 12.5535 19.5416 12.5816 19.8081 12.689C20.0745 12.7964 20.3023 12.9783 20.4625 13.2116C20.6228 13.445 20.7083 13.7193 20.7083 14C20.7077 14.3762 20.5539 14.7368 20.2805 15.0028C20.0071 15.2688 19.6366 15.4185 19.25 15.4191Z" fill="#3D4D55"/>
</svg>
