<svg width="123" height="101" viewBox="0 0 123 101" fill="none" xmlns="http://www.w3.org/2000/svg">
<g clip-path="url(#clip0_452_2)">
<path d="M56.9 50.27H65.98C67.31 50.27 68.53 50.81 69.4 51.69C70.28 52.57 70.82 53.78 70.82 55.11V74.25C70.82 75.58 70.28 76.79 69.4 77.67C68.52 78.55 67.31 79.09 65.98 79.09H56.9C55.57 79.09 54.36 78.55 53.48 77.67C52.6 76.79 52.06 75.58 52.06 74.25V55.12C52.06 53.79 52.6 52.57 53.48 51.7C54.36 50.82 55.57 50.27 56.9 50.27ZM6.97 13.96H38.47V4.94C38.47 3.58 39.02 2.35 39.92 1.45C40.81 0.55 42.05 0 43.41 0H79.47C80.83 0 82.06 0.55 82.96 1.45C83.85 2.34 84.41 3.58 84.41 4.94V13.97H115.91C117.83 13.97 119.57 14.75 120.84 16.02C122.1 17.28 122.89 19.03 122.89 20.95V93.57C122.89 95.49 122.11 97.23 120.84 98.5C119.58 99.76 117.83 100.55 115.91 100.55H6.97C5.05 100.55 3.31 99.77 2.04 98.5C0.78 97.22 0 95.48 0 93.56V20.94C0 19.02 0.78 17.28 2.05 16.01C3.31 14.75 5.05 13.96 6.97 13.96ZM79.47 4.33H43.41C43.24 4.33 43.09 4.4 42.98 4.51C42.87 4.62 42.8 4.77 42.8 4.94V13.87H80.08V4.94C80.08 4.77 80.01 4.62 79.9 4.51C79.79 4.39 79.64 4.33 79.47 4.33ZM4.32 55.63C20.25 60.21 32.03 62.18 47.97 62.92V67.25C32.04 66.52 20.26 64.6 4.32 60.11V93.55C4.32 94.28 4.62 94.94 5.1 95.42C5.58 95.9 6.24 96.2 6.97 96.2H115.9C116.63 96.2 117.29 95.9 117.77 95.42C118.25 94.94 118.55 94.28 118.55 93.55V60.12C102.64 64.6 91.57 66.52 75.67 67.25V62.92C91.58 62.17 102.65 60.2 118.55 55.63V20.94C118.55 20.21 118.25 19.55 117.77 19.07C117.29 18.59 116.63 18.29 115.9 18.29H6.97C6.24 18.29 5.58 18.59 5.1 19.07C4.62 19.55 4.32 20.21 4.32 20.94V55.63ZM65.98 54.6H56.9C56.76 54.6 56.63 54.66 56.54 54.75C56.45 54.84 56.39 54.97 56.39 55.11V74.25C56.39 74.39 56.45 74.52 56.54 74.61C56.63 74.71 56.76 74.76 56.9 74.76H65.98C66.12 74.76 66.25 74.7 66.34 74.61C66.43 74.52 66.49 74.39 66.49 74.25V55.12C66.49 54.98 66.43 54.85 66.34 54.76C66.25 54.66 66.12 54.6 65.98 54.6Z" fill="black" stroke="black" stroke-width="2"/>
</g>
<defs>
<clipPath id="clip0_452_2">
<rect width="122.88" height="100.53" fill="white"/>
</clipPath>
</defs>
</svg>
