<svg width="24" height="24" viewBox="0 0 24 24" fill="none" xmlns="http://www.w3.org/2000/svg">
<path d="M20 6.78947H17V5.84211C17 5.08833 16.6839 4.36543 16.1213 3.83243C15.5587 3.29944 14.7956 3 14 3H10C9.20435 3 8.44129 3.29944 7.87868 3.83243C7.31607 4.36543 7 5.08833 7 5.84211V6.78947H4C3.46957 6.78947 2.96086 6.9891 2.58579 7.34443C2.21071 7.69976 2 8.18169 2 8.68421V19.1053C2 19.6078 2.21071 20.0897 2.58579 20.445C2.96086 20.8004 3.46957 21 4 21H20C20.5304 21 21.0391 20.8004 21.4142 20.445C21.7893 20.0897 22 19.6078 22 19.1053V8.68421C22 8.18169 21.7893 7.69976 21.4142 7.34443C21.0391 6.9891 20.5304 6.78947 20 6.78947ZM9 5.84211C9 5.59085 9.10536 5.34988 9.29289 5.17221C9.48043 4.99455 9.73478 4.89474 10 4.89474H14C14.2652 4.89474 14.5196 4.99455 14.7071 5.17221C14.8946 5.34988 15 5.59085 15 5.84211V6.78947H9V5.84211ZM20 8.68421V12.0417C16.279 15.1623 7.721 15.1623 4 12.0417V8.68421H20ZM4 19.1053V14.3741C6.44775 15.6498 9.2069 16.2925 12 16.2376C14.7931 16.2923 17.5522 15.6497 20 14.3741V19.1053H4Z" fill="#3D4D55"/>
<path d="M12 12.4737C12.5523 12.4737 13 12.0495 13 11.5263C13 11.0031 12.5523 10.5789 12 10.5789C11.4477 10.5789 11 11.0031 11 11.5263C11 12.0495 11.4477 12.4737 12 12.4737Z" fill="#3D4D55"/>
</svg>
