<svg width="424" height="424" viewBox="0 0 424 424" fill="none" xmlns="http://www.w3.org/2000/svg">
<g clip-path="url(#clip0_457_2)">
<path d="M211.79 0.769531C95.1895 0.769531 0.769531 95.3985 0.769531 212C0.769531 328.6 95.1875 423.229 211.79 423.229C328.6 423.229 423.229 328.599 423.229 212C423.229 95.3995 328.599 0.769531 211.79 0.769531ZM212 43.0135C305.363 43.0135 380.98 118.634 380.98 211.994C380.98 305.357 305.36 380.974 212 380.974C118.637 380.974 43.0202 305.354 43.0202 211.994C43.0202 118.631 118.64 43.0135 212 43.0135ZM190.879 106.384V233.124L301.769 299.661L317.612 273.68L222.559 217.281V106.391H190.876L190.879 106.384Z" fill="black"/>
</g>
<defs>
<clipPath id="clip0_457_2">
<rect width="424" height="424" fill="white"/>
</clipPath>
</defs>
</svg>
