<svg width="28" height="28" viewBox="0 0 28 28" fill="none" xmlns="http://www.w3.org/2000/svg">
<path d="M3.50016 8.32378H5.1615C5.40385 9.06484 5.8822 9.71166 6.52734 10.1707C7.17248 10.6297 7.95096 10.8771 8.75016 10.8771C9.54936 10.8771 10.3278 10.6297 10.973 10.1707C11.6181 9.71166 12.0965 9.06484 12.3388 8.32378H24.5002C24.8096 8.32378 25.1063 8.20418 25.3251 7.99128C25.5439 7.77838 25.6668 7.48963 25.6668 7.18854C25.6668 6.88746 25.5439 6.5987 25.3251 6.3858C25.1063 6.1729 24.8096 6.0533 24.5002 6.0533H12.3388C12.0965 5.31224 11.6181 4.66542 10.973 4.20641C10.3278 3.7474 9.54936 3.5 8.75016 3.5C7.95096 3.5 7.17248 3.7474 6.52734 4.20641C5.8822 4.66542 5.40385 5.31224 5.1615 6.0533H3.50016C3.19074 6.0533 2.894 6.1729 2.6752 6.3858C2.45641 6.5987 2.3335 6.88746 2.3335 7.18854C2.3335 7.48963 2.45641 7.77838 2.6752 7.99128C2.894 8.20418 3.19074 8.32378 3.50016 8.32378ZM8.75016 5.76949C9.03859 5.76949 9.32055 5.85271 9.56037 6.00864C9.80019 6.16457 9.98711 6.38619 10.0975 6.64549C10.2079 6.90479 10.2367 7.19011 10.1805 7.46538C10.1242 7.74065 9.98531 7.99351 9.78136 8.19196C9.57741 8.39042 9.31756 8.52557 9.03467 8.58033C8.75178 8.63508 8.45856 8.60698 8.19208 8.49958C7.92561 8.39217 7.69785 8.21029 7.5376 7.97692C7.37736 7.74356 7.29183 7.4692 7.29183 7.18854C7.29245 6.81237 7.44629 6.45178 7.71965 6.18578C7.993 5.91979 8.36358 5.77009 8.75016 5.76949Z" fill="#3D4D55"/>
<path d="M24.5002 19.6762H12.3388C12.0965 18.9352 11.6181 18.2883 10.973 17.8293C10.3278 17.3703 9.54936 17.1229 8.75016 17.1229C7.95096 17.1229 7.17248 17.3703 6.52734 17.8293C5.8822 18.2883 5.40385 18.9352 5.1615 19.6762H3.50016C3.19074 19.6762 2.894 19.7958 2.6752 20.0087C2.45641 20.2216 2.3335 20.5104 2.3335 20.8115C2.3335 21.1125 2.45641 21.4013 2.6752 21.6142C2.894 21.8271 3.19074 21.9467 3.50016 21.9467H5.1615C5.40385 22.6878 5.8822 23.3346 6.52734 23.7936C7.17248 24.2526 7.95096 24.5 8.75016 24.5C9.54936 24.5 10.3278 24.2526 10.973 23.7936C11.6181 23.3346 12.0965 22.6878 12.3388 21.9467H24.5002C24.8096 21.9467 25.1063 21.8271 25.3251 21.6142C25.5439 21.4013 25.6668 21.1125 25.6668 20.8115C25.6668 20.5104 25.5439 20.2216 25.3251 20.0087C25.1063 19.7958 24.8096 19.6762 24.5002 19.6762ZM8.75016 22.2305C8.46173 22.2305 8.17978 22.1473 7.93996 21.9914C7.70013 21.8354 7.51322 21.6138 7.40284 21.3545C7.29246 21.0952 7.26358 20.8099 7.31985 20.5346C7.37612 20.2593 7.51501 20.0065 7.71897 19.808C7.92292 19.6096 8.18277 19.4744 8.46566 19.4197C8.74855 19.3649 9.04177 19.393 9.30824 19.5004C9.57472 19.6078 9.80248 19.7897 9.96272 20.0231C10.123 20.2564 10.2085 20.5308 10.2085 20.8115C10.2079 21.1876 10.054 21.5482 9.78068 21.8142C9.50732 22.0802 9.13675 22.2299 8.75016 22.2305Z" fill="#3D4D55"/>
<path d="M24.5002 12.8648H22.8388C22.5965 12.1237 22.1181 11.4769 21.473 11.0179C20.8278 10.5589 20.0494 10.3115 19.2502 10.3115C18.451 10.3115 17.6725 10.5589 17.0273 11.0179C16.3822 11.4769 15.9039 12.1237 15.6615 12.8648H3.50016C3.19074 12.8648 2.894 12.9844 2.6752 13.1973C2.45641 13.4102 2.3335 13.6989 2.3335 14C2.3335 14.3011 2.45641 14.5898 2.6752 14.8027C2.894 15.0156 3.19074 15.1352 3.50016 15.1352H15.6615C15.9039 15.8763 16.3822 16.5231 17.0273 16.9821C17.6725 17.4411 18.451 17.6885 19.2502 17.6885C20.0494 17.6885 20.8278 17.4411 21.473 16.9821C22.1181 16.5231 22.5965 15.8763 22.8388 15.1352H24.5002C24.8096 15.1352 25.1063 15.0156 25.3251 14.8027C25.5439 14.5898 25.6668 14.3011 25.6668 14C25.6668 13.6989 25.5439 13.4102 25.3251 13.1973C25.1063 12.9844 24.8096 12.8648 24.5002 12.8648ZM19.2502 15.4191C18.9617 15.4191 18.6798 15.3358 18.44 15.1799C18.2001 15.024 18.0132 14.8023 17.9028 14.543C17.7925 14.2838 17.7636 13.9984 17.8199 13.7232C17.8761 13.4479 18.015 13.195 18.219 12.9966C18.4229 12.7981 18.6828 12.663 18.9657 12.6082C19.2485 12.5535 19.5418 12.5816 19.8082 12.689C20.0747 12.7964 20.3025 12.9783 20.4627 13.2116C20.623 13.445 20.7085 13.7193 20.7085 14C20.7079 14.3762 20.554 14.7368 20.2807 15.0028C20.0073 15.2688 19.6367 15.4185 19.2502 15.4191Z" fill="#3D4D55"/>
</svg>
