<svg width="32" height="32" viewBox="0 0 32 32" fill="none" xmlns="http://www.w3.org/2000/svg">
<path d="M13.6001 23.2C11.7014 23.2 9.84531 22.637 8.26658 21.5821C6.68785 20.5272 5.45738 19.0279 4.73077 17.2738C4.00416 15.5196 3.81405 13.5893 4.18447 11.7271C4.55489 9.86492 5.46921 8.15436 6.81181 6.81178C8.15441 5.46919 9.86499 4.55488 11.7272 4.18447C13.5895 3.81405 15.5197 4.00416 17.2739 4.73076C19.0281 5.45736 20.5274 6.68782 21.5823 8.26653C22.6372 9.84524 23.2002 11.7013 23.2002 13.6C23.1974 16.1452 22.185 18.5853 20.3853 20.3851C18.5855 22.1848 16.1453 23.1971 13.6001 23.2ZM13.6001 6.4C12.1761 6.4 10.784 6.82228 9.59996 7.61342C8.41592 8.40457 7.49306 9.52905 6.94811 10.8447C6.40315 12.1603 6.26056 13.608 6.53838 15.0046C6.8162 16.4013 7.50194 17.6842 8.50889 18.6912C9.51584 19.6981 10.7988 20.3838 12.1954 20.6616C13.5921 20.9395 15.0398 20.7969 16.3555 20.2519C17.6711 19.707 18.7956 18.7841 19.5868 17.6001C20.3779 16.4161 20.8002 15.024 20.8002 13.6C20.7983 11.691 20.0391 9.86079 18.6892 8.51094C17.3394 7.16109 15.5091 6.40191 13.6001 6.4Z" fill="#414143" fill-opacity="0.5"/>
<path d="M26.8002 28C26.482 27.9999 26.1768 27.8735 25.9518 27.6484L21.1518 22.8484C20.9332 22.6221 20.8122 22.319 20.815 22.0043C20.8177 21.6897 20.9439 21.3887 21.1664 21.1662C21.3889 20.9437 21.6899 20.8175 22.0045 20.8148C22.3191 20.8121 22.6223 20.933 22.8486 21.1516L27.6487 25.9516C27.8164 26.1194 27.9307 26.3332 27.977 26.566C28.0232 26.7987 27.9995 27.0399 27.9087 27.2592C27.8179 27.4784 27.6641 27.6658 27.4668 27.7977C27.2695 27.9295 27.0375 28 26.8002 28Z" fill="#414143" fill-opacity="0.5"/>
</svg>
