<svg width="24" height="24" viewBox="0 0 24 24" fill="none" xmlns="http://www.w3.org/2000/svg">
<path d="M21 8.44737C21 7.23189 19.5366 4.34526 19.0884 3.48979C19.0106 3.34138 18.8965 3.21764 18.7578 3.13149C18.6191 3.04535 18.461 2.99994 18.3 3H5.7C5.54055 2.99993 5.38394 3.04446 5.24621 3.12902C5.10847 3.21358 4.99455 3.33514 4.9161 3.48126C4.467 4.31968 3 7.15421 3 8.44737C3.00039 8.86109 3.08033 9.27044 3.23501 9.65077C3.38968 10.0311 3.61589 10.3746 3.9 10.6604V20.0526C3.9 20.3039 3.99482 20.5449 4.1636 20.7225C4.33239 20.9002 4.56131 21 4.8 21H7.5C7.73869 21 7.96761 20.9002 8.1364 20.7225C8.30518 20.5449 8.4 20.3039 8.4 20.0526V14.3684H10.2V20.0526C10.2 20.3039 10.2948 20.5449 10.4636 20.7225C10.6324 20.9002 10.8613 21 11.1 21H19.2C19.4387 21 19.6676 20.9002 19.8364 20.7225C20.0052 20.5449 20.1 20.3039 20.1 20.0526V10.6206C20.3793 10.3392 20.6027 10.0022 20.7572 9.62909C20.9117 9.25601 20.9943 8.85432 21 8.44737ZM6.2319 4.89474H17.76C18.3814 6.00974 18.8653 7.20357 19.2 8.44737C19.1815 8.75507 19.0571 9.0451 18.85 9.26311C18.6428 9.48112 18.3673 9.61213 18.075 9.63158C17.7768 9.63108 17.4909 9.50615 17.28 9.28418C17.0692 9.0622 16.9505 8.76129 16.95 8.44737C16.95 8.19611 16.8552 7.95514 16.6864 7.77748C16.5176 7.59981 16.2887 7.5 16.05 7.5C15.8113 7.5 15.5824 7.59981 15.4136 7.77748C15.2448 7.95514 15.15 8.19611 15.15 8.44737C15.15 8.76144 15.0315 9.06265 14.8205 9.28473C14.6095 9.50681 14.3234 9.63158 14.025 9.63158C13.7266 9.63158 13.4405 9.50681 13.2295 9.28473C13.0185 9.06265 12.9 8.76144 12.9 8.44737C12.9 8.19611 12.8052 7.95514 12.6364 7.77748C12.4676 7.59981 12.2387 7.5 12 7.5C11.7613 7.5 11.5324 7.59981 11.3636 7.77748C11.1948 7.95514 11.1 8.19611 11.1 8.44737C11.1 8.76144 10.9815 9.06265 10.7705 9.28473C10.5595 9.50681 10.2734 9.63158 9.975 9.63158C9.67663 9.63158 9.39048 9.50681 9.1795 9.28473C8.96853 9.06265 8.85 8.76144 8.85 8.44737C8.85 8.19611 8.75518 7.95514 8.5864 7.77748C8.41761 7.59981 8.18869 7.5 7.95 7.5C7.71131 7.5 7.48239 7.59981 7.3136 7.77748C7.14482 7.95514 7.05 8.19611 7.05 8.44737C7.04952 8.76129 6.93084 9.0622 6.71997 9.28418C6.50909 9.50615 6.22322 9.63108 5.925 9.63158C5.62779 9.62765 5.34381 9.50162 5.13363 9.28039C4.92346 9.05915 4.80373 8.76022 4.8 8.44737C5.11883 7.19912 5.60073 6.0035 6.2319 4.89474ZM18.3 19.1053H12V13.4211C12 13.1698 11.9052 12.9288 11.7364 12.7512C11.5676 12.5735 11.3387 12.4737 11.1 12.4737H7.5C7.26131 12.4737 7.03239 12.5735 6.8636 12.7512C6.69482 12.9288 6.6 13.1698 6.6 13.4211V19.1053H5.7V11.5026C5.7756 11.5083 5.8476 11.5263 5.925 11.5263C6.68022 11.5266 7.40613 11.2186 7.95 10.6671C8.49401 11.2184 9.21982 11.5264 9.975 11.5264C10.7302 11.5264 11.456 11.2184 12 10.6671C12.544 11.2184 13.2698 11.5264 14.025 11.5264C14.7802 11.5264 15.506 11.2184 16.05 10.6671C16.5939 11.2186 17.3198 11.5266 18.075 11.5263C18.1515 11.5263 18.2244 11.5074 18.3 11.5007V19.1053Z" fill="black"/>
<path d="M16.5004 12.4736H13.8004C13.5617 12.4736 13.3328 12.5734 13.164 12.7511C12.9952 12.9287 12.9004 13.1697 12.9004 13.421V16.2631C12.9004 16.5143 12.9952 16.7553 13.164 16.9329C13.3328 17.1106 13.5617 17.2104 13.8004 17.2104H16.5004C16.7391 17.2104 16.968 17.1106 17.1368 16.9329C17.3056 16.7553 17.4004 16.5143 17.4004 16.2631V13.421C17.4004 13.1697 17.3056 12.9287 17.1368 12.7511C16.968 12.5734 16.7391 12.4736 16.5004 12.4736ZM15.6004 15.3157H14.7004V14.3683H15.6004V15.3157Z" fill="black"/>
</svg>
