<svg width="256" height="256" viewBox="0 0 256 256" fill="none" xmlns="http://www.w3.org/2000/svg">
<path d="M199.6 90.6004C206.9 82.5004 211.4 71.7004 211.4 59.9004C211.4 34.6004 190.8 13.9004 165.4 13.9004C140.1 13.9004 119.4 34.5004 119.4 59.9004H132.2C132.2 41.6004 147.1 26.8004 165.3 26.8004C183.6 26.8004 198.4 41.7004 198.4 59.9004C198.4 78.2004 183.5 93.0004 165.3 93.0004C159.4 93.0004 153.7 91.4004 148.6 88.5004L142.1 99.6004C149.1 103.7 157.1 105.8 165.2 105.8C174 105.8 182.2 103.3 189.2 99.0004C190 100.1 230.2 114.7 233 182C233.1 185.4 236 188.1 239.4 188.1C239.5 188.1 239.6 188.1 239.7 188.1C243.2 188 246 185 245.8 181.4C243.2 115.3 210 95.2004 199.6 90.6004Z" fill="black"/>
<path d="M136.5 133.9C144.8 124.3 149.9 111.8 149.9 98.1002C149.9 67.8002 125.3 43.2002 95 43.2002C64.7 43.2002 40.1 67.8002 40.1 98.1002C40.1 111.8 45.2 124.3 53.5 133.9C38.9 142.5 10 168.2 10 235.6C10 239.1 12.9 242 16.4 242C19.9 242 22.8 239.1 22.8 235.6C22.8 166.3 55 146.9 63.5 143C72.4 149.3 83.3 153 95 153C106.7 153 117.5 149.3 126.5 143C135 146.9 167.2 166.3 167.2 235.6C167.2 239.1 170.1 242 173.6 242C177.1 242 180 239.1 180 235.6C180 168.2 151.1 142.5 136.5 133.9ZM53 98.1002C53 74.9002 71.8 56.0002 95 56.0002C118.2 56.0002 137.1 74.9002 137.1 98.1002C137.1 121.3 118.2 140.2 95 140.2C71.8 140.1 53 121.3 53 98.1002Z" fill="black"/>
</svg>
