<svg width="256" height="256" viewBox="0 0 256 256" fill="none" xmlns="http://www.w3.org/2000/svg">
<path d="M224.208 207.711C242.178 186.058 253 158.272 253 128C253 59.075 196.925 3 128 3C59.075 3 3 59.075 3 128C3 158.272 13.8222 186.058 31.7917 207.711C32.0833 208.158 32.4222 208.586 32.8556 208.947C32.8611 208.953 32.8694 208.956 32.875 208.961C55.8194 235.881 89.9389 253 128 253C166.061 253 200.181 235.881 223.125 208.961C223.133 208.956 223.139 208.953 223.147 208.947C223.578 208.583 223.917 208.158 224.208 207.711ZM128 14.1111C190.797 14.1111 241.889 65.2028 241.889 128C241.889 153.469 233.483 177.014 219.3 196.006C202.408 177.936 180.756 165.478 157.072 159.831C175.119 149.639 187.353 130.306 187.353 108.139C187.353 75.4111 160.728 48.7861 128 48.7861C95.2722 48.7861 68.6472 75.4111 68.6472 108.139C68.6472 130.303 80.8806 149.636 98.9278 159.828C75.2444 165.475 53.5917 177.933 36.7 196.003C22.5167 177.014 14.1111 153.469 14.1111 128C14.1111 65.2028 65.2028 14.1111 128 14.1111ZM128 156.381C101.4 156.381 79.7583 134.739 79.7583 108.139C79.7583 81.5389 101.4 59.8944 128 59.8944C154.6 59.8944 176.242 81.5361 176.242 108.136C176.242 134.736 154.6 156.381 128 156.381ZM128 241.889C94.7056 241.889 64.7028 227.525 43.8611 204.669C65.4444 180.997 95.8278 167.492 128 167.492C160.169 167.492 190.556 181 212.139 204.669C191.297 227.525 161.294 241.889 128 241.889Z" fill="black" stroke="black" stroke-width="2"/>
</svg>
