<svg width="32" height="32" viewBox="0 0 32 32" fill="none" xmlns="http://www.w3.org/2000/svg">
<path d="M3.99996 9.51289H5.89863C6.17561 10.3598 6.72229 11.099 7.4596 11.6237C8.1969 12.1482 9.08659 12.431 9.99996 12.431C10.9133 12.431 11.8031 12.1482 12.5403 11.6237C13.2776 11.099 13.8243 10.3598 14.1012 9.51289H28C28.3536 9.51289 28.6927 9.37621 28.9427 9.13289C29.1928 8.88958 29.3332 8.55958 29.3332 8.21547C29.3332 7.87138 29.1928 7.54137 28.9427 7.29806C28.6927 7.05474 28.3536 6.91806 28 6.91806H14.1012C13.8243 6.07113 13.2776 5.33191 12.5403 4.80733C11.8031 4.28274 10.9133 4 9.99996 4C9.08659 4 8.1969 4.28274 7.4596 4.80733C6.72229 5.33191 6.17561 6.07113 5.89863 6.91806H3.99996C3.64634 6.91806 3.3072 7.05474 3.05715 7.29806C2.80711 7.54137 2.66663 7.87138 2.66663 8.21547C2.66663 8.55958 2.80711 8.88958 3.05715 9.13289C3.3072 9.37621 3.64634 9.51289 3.99996 9.51289ZM9.99996 6.5937C10.3296 6.5937 10.6518 6.68881 10.9259 6.86702C11.2 7.04522 11.4136 7.2985 11.5398 7.59485C11.6659 7.89119 11.699 8.21727 11.6346 8.53186C11.5703 8.84646 11.4116 9.13544 11.1785 9.36224C10.9454 9.58905 10.6484 9.74351 10.3251 9.80609C10.0018 9.86866 9.66671 9.83655 9.36216 9.71381C9.05761 9.59105 8.79731 9.38319 8.61418 9.11648C8.43105 8.84978 8.3333 8.53623 8.3333 8.21547C8.334 7.78557 8.50983 7.37346 8.82223 7.06946C9.13464 6.76547 9.55816 6.59439 9.99996 6.5937Z" fill="white"/>
<path d="M28 22.487H14.1012C13.8243 21.6402 13.2776 20.9009 12.5403 20.3763C11.8031 19.8517 10.9133 19.569 9.99996 19.569C9.08659 19.569 8.1969 19.8517 7.4596 20.3763C6.72229 20.9009 6.17561 21.6402 5.89863 22.487H3.99996C3.64634 22.487 3.3072 22.6237 3.05715 22.867C2.80711 23.1103 2.66663 23.4404 2.66663 23.7845C2.66663 24.1285 2.80711 24.4586 3.05715 24.7019C3.3072 24.9452 3.64634 25.0819 3.99996 25.0819H5.89863C6.17561 25.9289 6.72229 26.6681 7.4596 27.1926C8.1969 27.7172 9.08659 27.9999 9.99996 27.9999C10.9133 27.9999 11.8031 27.7172 12.5403 27.1926C13.2776 26.6681 13.8243 25.9289 14.1012 25.0819H28C28.3536 25.0819 28.6927 24.9452 28.9427 24.7019C29.1928 24.4586 29.3332 24.1285 29.3332 23.7845C29.3332 23.4404 29.1928 23.1103 28.9427 22.867C28.6927 22.6237 28.3536 22.487 28 22.487ZM9.99996 25.4062C9.67033 25.4062 9.3481 25.3111 9.07401 25.133C8.79993 24.9547 8.58631 24.7014 8.46017 24.4051C8.33402 24.1087 8.30101 23.7827 8.36532 23.4681C8.42963 23.1534 8.58836 22.8645 8.82145 22.6377C9.05453 22.4109 9.35151 22.2564 9.67481 22.1939C9.99811 22.1313 10.3332 22.1634 10.6378 22.2861C10.9423 22.4089 11.2026 22.6167 11.3857 22.8835C11.5689 23.1501 11.6666 23.4637 11.6666 23.7845C11.6659 24.2143 11.4902 24.6265 11.1777 24.9305C10.8653 25.2345 10.4418 25.4055 9.99996 25.4062Z" fill="white"/>
<path d="M28 14.7026H26.1012C25.8243 13.8556 25.2776 13.1164 24.5403 12.5919C23.8031 12.0673 22.9134 11.7845 22 11.7845C21.0866 11.7845 20.1969 12.0673 19.4596 12.5919C18.7223 13.1164 18.1756 13.8556 17.8986 14.7026H3.99996C3.64634 14.7026 3.3072 14.8393 3.05715 15.0826C2.80711 15.3259 2.66663 15.6559 2.66663 16C2.66663 16.3441 2.80711 16.674 3.05715 16.9173C3.3072 17.1607 3.64634 17.2973 3.99996 17.2973H17.8986C18.1756 18.1443 18.7223 18.8835 19.4596 19.4081C20.1969 19.9327 21.0866 20.2154 22 20.2154C22.9134 20.2154 23.8031 19.9327 24.5403 19.4081C25.2776 18.8835 25.8243 18.1443 26.1012 17.2973H28C28.3536 17.2973 28.6927 17.1607 28.9427 16.9173C29.1928 16.674 29.3332 16.3441 29.3332 16C29.3332 15.6559 29.1928 15.3259 28.9427 15.0826C28.6927 14.8393 28.3536 14.7026 28 14.7026ZM22 17.6218C21.6703 17.6218 21.3481 17.5266 21.074 17.3484C20.8 17.1703 20.5863 16.9169 20.4602 16.6205C20.334 16.3243 20.301 15.9981 20.3654 15.6836C20.4296 15.369 20.5883 15.08 20.8215 14.8532C21.0545 14.6264 21.3515 14.472 21.6748 14.4093C21.9982 14.3468 22.3332 14.3789 22.6378 14.5017C22.9423 14.6244 23.2026 14.8323 23.3857 15.0989C23.5689 15.3657 23.6666 15.6792 23.6666 16C23.6659 16.4299 23.4902 16.842 23.1777 17.146C22.8652 17.45 22.4418 17.6211 22 17.6218Z" fill="white"/>
</svg>
