<svg width="24" height="24" viewBox="0 0 24 24" fill="none" xmlns="http://www.w3.org/2000/svg">
<path d="M6.18995 21.854C6.07783 21.9347 5.94562 21.9828 5.80788 21.9931C5.67015 22.0034 5.53224 21.9755 5.40937 21.9124C5.2865 21.8493 5.18344 21.7535 5.11155 21.6356C5.03966 21.5176 5.00174 21.3821 5.00195 21.244V6.25C5.00195 5.38805 5.34436 4.5614 5.95386 3.9519C6.56335 3.34241 7.39 3 8.25195 3H15.751C16.6126 3.00027 17.4388 3.34265 18.0481 3.9519C18.6573 4.56115 18.9997 5.38739 19 6.249V21.245C19 21.383 18.9619 21.5184 18.89 21.6362C18.818 21.754 18.7149 21.8496 18.5921 21.9126C18.4693 21.9756 18.3314 22.0034 18.1938 21.9931C18.0561 21.9827 17.924 21.9346 17.812 21.854L12.001 17.673L6.18895 21.853L6.18995 21.854ZM17.5 6.249C17.5 5.78487 17.3156 5.33975 16.9874 5.01156C16.6592 4.68337 16.2141 4.499 15.75 4.499H8.25295C7.78883 4.499 7.34371 4.68337 7.01552 5.01156C6.68733 5.33975 6.50295 5.78487 6.50295 6.249V19.781L11.565 16.141C11.6926 16.0492 11.8458 15.9998 12.003 15.9998C12.1601 15.9998 12.3134 16.0492 12.441 16.141L17.501 19.781V6.25L17.5 6.249Z" fill="#536471"/>
</svg>
