<svg width="146" height="145" viewBox="0 0 146 145" fill="none" xmlns="http://www.w3.org/2000/svg">
<path d="M94.8326 72L127.817 39.036C131.272 35.5825 133 31.7629 133 27.577C132.791 23.8095 131.063 20.3039 127.817 17.0603C124.885 14.1301 121.429 12.4557 117.451 12.0372C113.367 11.7232 109.493 13.3976 105.828 17.0603L72.8434 50.0243L39.8592 17.0603C36.5085 13.7114 32.7388 12.0371 28.5502 12.0372C24.4664 12.351 20.9062 14.0254 17.8691 17.0603C15.2513 19.6764 13.7331 23.0775 13.3141 27.2632C12.8953 31.6583 14.4136 35.5826 17.8691 39.036L50.8533 72L17.8691 104.964C14.9372 107.894 13.3142 111.714 13 116.423C13.3142 120.504 14.9372 124.01 17.8691 126.94C20.5917 129.66 24.0472 131.335 28.2352 131.963C32.3191 132.277 36.1933 130.602 39.8582 126.94L72.8425 93.9757L105.827 126.94C109.282 130.393 113.104 131.91 117.293 131.492C121.586 131.178 125.094 129.66 127.816 126.94C130.329 124.428 131.847 121.027 132.371 116.737C132.999 112.551 131.481 108.626 127.816 104.964L94.8315 72" fill="white"/>
</svg>
