<svg width="25" height="24" viewBox="0 0 25 24" fill="none" xmlns="http://www.w3.org/2000/svg">
<path d="M5.40649 18C4.54454 18 3.71789 17.6576 3.1084 17.0481C2.4989 16.4386 2.15649 15.612 2.15649 14.75V6.25C2.15649 5.38805 2.4989 4.5614 3.1084 3.9519C3.71789 3.34241 4.54454 3 5.40649 3H18.9065C19.3333 3 19.7559 3.08406 20.1502 3.24739C20.5445 3.41072 20.9028 3.65011 21.2046 3.9519C21.5064 4.25369 21.7458 4.61197 21.9091 5.00628C22.0724 5.40059 22.1565 5.8232 22.1565 6.25V14.75C22.1565 15.1768 22.0724 15.5994 21.9091 15.9937C21.7458 16.388 21.5064 16.7463 21.2046 17.0481C20.9028 17.3499 20.5445 17.5893 20.1502 17.7526C19.7559 17.9159 19.3333 18 18.9065 18H13.1685L8.15649 21.75C7.97078 21.889 7.75005 21.9736 7.519 21.9943C7.28796 22.015 7.05571 21.971 6.84825 21.8672C6.64079 21.7634 6.46631 21.6039 6.34431 21.4066C6.22232 21.2093 6.15763 20.982 6.15749 20.75V18H5.40749H5.40649ZM12.6705 16.5H18.9065C19.3706 16.5 19.8157 16.3156 20.1439 15.9874C20.4721 15.6592 20.6565 15.2141 20.6565 14.75V6.25C20.6565 5.78587 20.4721 5.34075 20.1439 5.01256C19.8157 4.68437 19.3706 4.5 18.9065 4.5H5.40649C4.94237 4.5 4.49725 4.68437 4.16906 5.01256C3.84087 5.34075 3.65649 5.78587 3.65649 6.25V14.75C3.65649 15.716 4.44049 16.5 5.40649 16.5H7.65549V20.25L12.6705 16.5Z" fill="#536471"/>
</svg>
