<svg width="24" height="23" viewBox="0 0 24 23" fill="none" xmlns="http://www.w3.org/2000/svg">
<path d="M15 21.6386H9C3.57 21.6386 1.25 19.4862 1.25 14.4487V8.88229C1.25 3.84472 3.57 1.69238 9 1.69238H11C11.41 1.69238 11.75 2.00781 11.75 2.38818C11.75 2.76855 11.41 3.08398 11 3.08398H9C4.39 3.08398 2.75 4.60545 2.75 8.88229V14.4487C2.75 18.7255 4.39 20.247 9 20.247H15C19.61 20.247 21.25 18.7255 21.25 14.4487V12.5932C21.25 12.2128 21.59 11.8974 22 11.8974C22.41 11.8974 22.75 12.2128 22.75 12.5932V14.4487C22.75 19.4862 20.43 21.6386 15 21.6386Z" fill="#3D4D55"/>
<path d="M8.50008 16.9446C7.89008 16.9446 7.33008 16.7405 6.92008 16.3694C6.43008 15.9148 6.22008 15.2562 6.33008 14.5604L6.76008 11.7679C6.84008 11.2298 7.22008 10.534 7.63008 10.1536L15.5101 2.84313C17.5001 0.996951 19.5201 0.996951 21.5101 2.84313C22.6001 3.85436 23.0901 4.88414 22.9901 5.91392C22.9001 6.74888 22.4201 7.56528 21.5101 8.40023L13.6301 15.7107C13.2201 16.0911 12.4701 16.4437 11.8901 16.5179L8.88008 16.9168C8.75008 16.9446 8.62008 16.9446 8.50008 16.9446ZM16.5701 3.82653L8.69008 11.137C8.50008 11.3133 8.28008 11.7215 8.24008 11.9627L7.81008 14.7552C7.77008 15.0242 7.83008 15.2469 7.98008 15.386C8.13008 15.5252 8.37008 15.5809 8.66008 15.5438L11.6701 15.1448C11.9301 15.1077 12.3801 14.9036 12.5601 14.7274L20.4401 7.41684C21.0901 6.81382 21.4301 6.27573 21.4801 5.77476C21.5401 5.17173 21.2001 4.5316 20.4401 3.81725C18.8401 2.33288 17.7401 2.75036 16.5701 3.82653Z" fill="#3D4D55"/>
<path d="M19.8501 9.6524C19.7801 9.6524 19.7101 9.64312 19.6501 9.62457C17.0201 8.93805 14.9301 6.99909 14.1901 4.55916C14.0801 4.18807 14.3101 3.8077 14.7101 3.69637C15.1101 3.59432 15.5201 3.8077 15.6301 4.17879C16.2301 6.15486 17.9201 7.72272 20.0501 8.27936C20.4501 8.38141 20.6801 8.77105 20.5701 9.14215C20.4801 9.45757 20.1801 9.6524 19.8501 9.6524Z" fill="#3D4D55"/>
</svg>
