<svg width="24" height="24" viewBox="0 0 24 24" fill="none" xmlns="http://www.w3.org/2000/svg">
<path d="M18.75 3.501C19.1768 3.501 19.5994 3.58506 19.9937 3.74839C20.388 3.91172 20.7463 4.15111 21.0481 4.4529C21.3499 4.75469 21.5893 5.11297 21.7526 5.50728C21.9159 5.90159 22 6.3242 22 6.751V17.254C22 17.6808 21.9159 18.1034 21.7526 18.4977C21.5893 18.892 21.3499 19.2503 21.0481 19.5521C20.7463 19.8539 20.388 20.0933 19.9937 20.2566C19.5994 20.4199 19.1768 20.504 18.75 20.504H5.25C4.38805 20.504 3.5614 20.1616 2.9519 19.5521C2.34241 18.9426 2 18.116 2 17.254V6.75C2 5.88805 2.34241 5.0614 2.9519 4.4519C3.5614 3.84241 4.38805 3.5 5.25 3.5H18.75V3.501ZM18.75 5.001H5.25C4.78587 5.001 4.34075 5.18537 4.01256 5.51356C3.68437 5.84175 3.5 6.28687 3.5 6.751V17.254C3.5 18.22 4.284 19.004 5.25 19.004H18.75C19.2141 19.004 19.6592 18.8196 19.9874 18.4914C20.3156 18.1632 20.5 17.7181 20.5 17.254V6.75C20.5 6.28587 20.3156 5.84075 19.9874 5.51256C19.6592 5.18437 19.2141 5 18.75 5V5.001ZM8.015 8.872C8.611 8.872 9.034 8.954 9.517 9.186C9.591 9.22152 9.65728 9.27127 9.71205 9.33241C9.76682 9.39355 9.80902 9.46487 9.83623 9.54232C9.86343 9.61976 9.87512 9.70181 9.87062 9.78377C9.86612 9.86573 9.84552 9.946 9.81 10.02C9.77448 10.094 9.72473 10.1603 9.66359 10.2151C9.60245 10.2698 9.53113 10.312 9.45368 10.3392C9.37624 10.3664 9.29419 10.3781 9.21223 10.3736C9.13027 10.3691 9.05 10.3485 8.976 10.313C8.676 10.169 8.436 10.123 8.015 10.123C7.148 10.123 6.511 10.919 6.511 11.995C6.511 13.072 7.149 13.871 8.015 13.871C8.443 13.871 8.806 13.691 8.995 13.37L9 13.355V12.621H8.624C8.47436 12.621 8.32969 12.5673 8.21629 12.4697C8.10288 12.372 8.02827 12.237 8.006 12.089L8 11.997C8 11.683 8.231 11.423 8.533 11.378L8.625 11.372H9.627C9.941 11.372 10.2 11.602 10.245 11.904L10.252 11.997L10.25 13.544L10.244 13.6L10.223 13.69L10.203 13.745C9.826 14.635 8.962 15.121 8.015 15.121C6.389 15.121 5.261 13.708 5.261 11.995C5.261 10.282 6.388 8.872 8.015 8.872ZM12.629 8.994C12.943 8.994 13.203 9.226 13.247 9.527L13.254 9.619V14.382C13.2537 14.5396 13.1939 14.6912 13.0865 14.8065C12.9792 14.9219 12.8323 14.9924 12.6751 15.004C12.518 15.0157 12.3623 14.9675 12.2391 14.8692C12.116 14.771 12.0345 14.6298 12.011 14.474L12.004 14.382V9.619C12.004 9.274 12.284 8.994 12.629 8.994ZM15.625 8.994L17.622 9.001C17.7804 9.00059 17.9331 9.06034 18.0491 9.16818C18.1651 9.27601 18.2359 9.42388 18.2471 9.5819C18.2582 9.73991 18.209 9.89627 18.1093 10.0194C18.0096 10.1425 17.8669 10.2231 17.71 10.245L17.618 10.251L16.247 10.246V12H17.37C17.684 12 17.944 12.232 17.988 12.534L17.995 12.626C17.995 12.7758 17.9411 12.9206 17.8433 13.034C17.7455 13.1474 17.6102 13.222 17.462 13.244L17.37 13.251L16.247 13.25V14.365C16.2472 14.5148 16.1936 14.6597 16.096 14.7733C15.9983 14.8869 15.8631 14.9617 15.715 14.984L15.623 14.99C15.4732 14.9902 15.3283 14.9366 15.2147 14.839C15.1011 14.7413 15.0263 14.6061 15.004 14.458L14.998 14.365V9.617C14.9986 9.46741 15.0528 9.32298 15.1507 9.20995C15.2487 9.09692 15.384 9.02278 15.532 9.001L15.625 8.994Z" fill="#536471"/>
</svg>
