<svg width="24" height="24" viewBox="0 0 24 24" fill="none" xmlns="http://www.w3.org/2000/svg">
<path d="M12.8201 5.57998L12.0001 6.40198L11.1761 5.57798C10.168 4.57003 8.80076 4.00382 7.37521 4.00391C5.94965 4.00401 4.58252 4.5704 3.57456 5.57848C2.56661 6.58657 2.00039 7.95378 2.00049 9.37934C2.00058 10.8049 2.56697 12.172 3.57506 13.18L11.4701 21.075C11.6107 21.2154 11.8013 21.2943 12.0001 21.2943C12.1988 21.2943 12.3894 21.2154 12.5301 21.075L20.4321 13.178C21.439 12.1698 22.0044 10.8031 22.0042 9.37828C22.0041 7.95341 21.4382 6.58689 20.4311 5.57898C19.9314 5.07903 19.3382 4.68242 18.6852 4.41182C18.0323 4.14123 17.3324 4.00195 16.6256 4.00195C15.9187 4.00195 15.2189 4.14123 14.5659 4.41182C13.9129 4.68242 13.3197 5.07903 12.8201 5.57898V5.57998ZM19.3681 12.12L12.0001 19.485L4.63506 12.12C4.27209 11.7609 3.98368 11.3335 3.7864 10.8626C3.58911 10.3916 3.48686 9.88632 3.4855 9.37572C3.48414 8.86511 3.58371 8.35927 3.77848 7.88727C3.97325 7.41527 4.25939 6.98642 4.62044 6.62537C4.9815 6.26431 5.41035 5.97818 5.88235 5.7834C6.35435 5.58863 6.86019 5.48906 7.37079 5.49042C7.8814 5.49178 8.3867 5.59404 8.85765 5.79132C9.32861 5.9886 9.75593 6.27702 10.1151 6.63998L11.4731 7.99698C11.5437 8.06772 11.6278 8.12362 11.7204 8.16139C11.8129 8.19915 11.9121 8.21804 12.0121 8.21692C12.1121 8.2158 12.2108 8.19471 12.3025 8.15487C12.3942 8.11504 12.477 8.05728 12.5461 7.98498L13.8801 6.63998C14.6154 5.95556 15.5875 5.583 16.5919 5.60067C17.5963 5.61834 18.5547 6.02487 19.2654 6.73474C19.9762 7.44461 20.384 8.40249 20.4029 9.40686C20.4219 10.4112 20.0505 11.3838 19.3671 12.12H19.3681Z" fill="#536471"/>
</svg>
