<svg width="24" height="26" viewBox="0 0 24 26" fill="none" xmlns="http://www.w3.org/2000/svg">
<path d="M15.24 24.1259H15.11C10.67 24.1259 8.53002 22.2301 8.16002 17.9834C8.12002 17.5393 8.42002 17.1384 8.84002 17.0951C9.24002 17.0518 9.62002 17.3876 9.66002 17.8318C9.95002 21.2334 11.43 22.5009 15.12 22.5009H15.25C19.32 22.5009 20.76 20.9409 20.76 16.5318V9.46843C20.76 5.05927 19.32 3.49927 15.25 3.49927H15.12C11.41 3.49927 9.93002 4.78843 9.66002 8.2551C9.61002 8.69927 9.26002 9.0351 8.84002 8.99177C8.42002 8.95927 8.12001 8.55843 8.15001 8.11427C8.49001 3.8026 10.64 1.87427 15.11 1.87427H15.24C20.15 1.87427 22.25 4.14927 22.25 9.46843V16.5318C22.25 21.8509 20.15 24.1259 15.24 24.1259Z" fill="#444444"/>
<path d="M15.0001 13.8125H3.62012C3.21012 13.8125 2.87012 13.4442 2.87012 13C2.87012 12.5558 3.21012 12.1875 3.62012 12.1875H15.0001C15.4101 12.1875 15.7501 12.5558 15.7501 13C15.7501 13.4442 15.4101 13.8125 15.0001 13.8125Z" fill="#444444"/>
<path d="M5.84994 17.4417C5.65994 17.4417 5.46994 17.3658 5.31994 17.2033L1.96994 13.5742C1.67994 13.26 1.67994 12.74 1.96994 12.4258L5.31994 8.79666C5.60994 8.48249 6.08994 8.48249 6.37994 8.79666C6.66994 9.11083 6.66994 9.63083 6.37994 9.94499L3.55994 13L6.37994 16.055C6.66994 16.3692 6.66994 16.8892 6.37994 17.2033C6.23994 17.3658 6.03994 17.4417 5.84994 17.4417Z" fill="#444444"/>
</svg>
