<svg width="24" height="24" viewBox="0 0 24 24" fill="none" xmlns="http://www.w3.org/2000/svg">
<path d="M12 7.75C11.7702 7.75 11.5426 7.70474 11.3303 7.61679C11.118 7.52884 10.9251 7.39994 10.7626 7.23744C10.6001 7.07493 10.4712 6.88202 10.3832 6.6697C10.2953 6.45738 10.25 6.22981 10.25 6C10.25 5.77019 10.2953 5.54262 10.3832 5.3303C10.4712 5.11798 10.6001 4.92507 10.7626 4.76256C10.9251 4.60006 11.118 4.47116 11.3303 4.38321C11.5426 4.29526 11.7702 4.25 12 4.25C12.4641 4.25 12.9092 4.43437 13.2374 4.76256C13.5656 5.09075 13.75 5.53587 13.75 6C13.75 6.46413 13.5656 6.90925 13.2374 7.23744C12.9092 7.56563 12.4641 7.75 12 7.75ZM12 13.75C11.5359 13.75 11.0908 13.5656 10.7626 13.2374C10.4344 12.9092 10.25 12.4641 10.25 12C10.25 11.5359 10.4344 11.0908 10.7626 10.7626C11.0908 10.4344 11.5359 10.25 12 10.25C12.4641 10.25 12.9092 10.4344 13.2374 10.7626C13.5656 11.0908 13.75 11.5359 13.75 12C13.75 12.4641 13.5656 12.9092 13.2374 13.2374C12.9092 13.5656 12.4641 13.75 12 13.75ZM10.25 18C10.25 18.4641 10.4344 18.9092 10.7626 19.2374C11.0908 19.5656 11.5359 19.75 12 19.75C12.4641 19.75 12.9092 19.5656 13.2374 19.2374C13.5656 18.9092 13.75 18.4641 13.75 18C13.75 17.5359 13.5656 17.0908 13.2374 16.7626C12.9092 16.4344 12.4641 16.25 12 16.25C11.5359 16.25 11.0908 16.4344 10.7626 16.7626C10.4344 17.0908 10.25 17.5359 10.25 18Z" fill="#536471"/>
</svg>
