<svg width="32" height="32" viewBox="0 0 32 32" fill="none" xmlns="http://www.w3.org/2000/svg">
<path d="M16.7767 17.3224C16.7488 17.3224 16.707 17.3224 16.6791 17.3224C16.6372 17.3224 16.5814 17.3224 16.5395 17.3224C13.3721 17.2247 11 14.755 11 11.7131C11 8.61543 13.5256 6.08984 16.6233 6.08984C19.7209 6.08984 22.2465 8.61543 22.2465 11.7131C22.2326 14.7689 19.8465 17.2247 16.8186 17.3224C16.7907 17.3224 16.7907 17.3224 16.7767 17.3224ZM16.6093 8.16892C14.6558 8.16892 13.0791 9.75962 13.0791 11.6992C13.0791 13.6108 14.5721 15.1596 16.4698 15.2294C16.5116 15.2154 16.6512 15.2154 16.7907 15.2294C18.6605 15.1317 20.1256 13.5968 20.1395 11.6992C20.1395 9.75962 18.5628 8.16892 16.6093 8.16892Z" fill="white"/>
<path d="M16.4553 30.1875C12.7018 30.1875 9.1158 28.7922 6.33907 26.2527C6.08791 26.0294 5.97628 25.6945 6.00419 25.3736C6.18558 23.7131 7.21814 22.1643 8.9344 21.0201C13.0925 18.2573 19.8321 18.2573 23.9763 21.0201C25.6925 22.1782 26.7251 23.7131 26.9065 25.3736C26.9484 25.7085 26.8228 26.0294 26.5716 26.2527C23.7949 28.7922 20.2088 30.1875 16.4553 30.1875ZM8.19487 25.0945C10.5111 27.034 13.4274 28.0945 16.4553 28.0945C19.4832 28.0945 22.3995 27.034 24.7158 25.0945C24.4646 24.2433 23.7949 23.4201 22.8042 22.7503C19.3716 20.462 13.553 20.462 10.0925 22.7503C9.10184 23.4201 8.44603 24.2433 8.19487 25.0945Z" fill="white"/>
<path d="M16 30.1875C7.72558 30.1875 1 23.4619 1 15.1875C1 6.91308 7.72558 0.1875 16 0.1875C24.2744 0.1875 31 6.91308 31 15.1875C31 23.4619 24.2744 30.1875 16 30.1875ZM16 2.28052C8.88372 2.28052 3.09302 8.07122 3.09302 15.1875C3.09302 22.3038 8.88372 28.0945 16 28.0945C23.1163 28.0945 28.907 22.3038 28.907 15.1875C28.907 8.07122 23.1163 2.28052 16 2.28052Z" fill="white"/>
</svg>
