<svg width="24" height="26" viewBox="0 0 24 26" fill="none" xmlns="http://www.w3.org/2000/svg">
<path d="M12 17.0625C9.93 17.0625 8.25 15.2425 8.25 13C8.25 10.7575 9.93 8.9375 12 8.9375C14.07 8.9375 15.75 10.7575 15.75 13C15.75 15.2425 14.07 17.0625 12 17.0625ZM12 10.5625C10.76 10.5625 9.75 11.6567 9.75 13C9.75 14.3433 10.76 15.4375 12 15.4375C13.24 15.4375 14.25 14.3433 14.25 13C14.25 11.6567 13.24 10.5625 12 10.5625Z" fill="#444444"/>
<path d="M15.21 24.0391C15 24.0391 14.79 24.0066 14.58 23.9524C13.96 23.7682 13.44 23.3457 13.11 22.7499L12.99 22.5332C12.4 21.4282 11.59 21.4282 11 22.5332L10.89 22.7391C10.56 23.3457 10.04 23.7791 9.42 23.9524C8.79 24.1366 8.14 24.0391 7.59 23.6816L5.87 22.6091C5.26 22.2299 4.82 21.6124 4.63 20.8649C4.45 20.1174 4.54 19.3482 4.89 18.6874C5.18 18.1349 5.26 17.6366 5.09 17.3224C4.92 17.0082 4.49 16.8241 3.9 16.8241C2.44 16.8241 1.25 15.5349 1.25 13.9532V12.0466C1.25 10.4649 2.44 9.17574 3.9 9.17574C4.49 9.17574 4.92 8.99157 5.09 8.6774C5.26 8.36324 5.19 7.8649 4.89 7.3124C4.54 6.65157 4.45 5.87157 4.63 5.1349C4.81 4.3874 5.25 3.7699 5.87 3.39074L7.6 2.31824C8.73 1.5924 10.22 2.0149 10.9 3.26074L11.02 3.4774C11.61 4.5824 12.42 4.5824 13.01 3.4774L13.12 3.27157C13.8 2.0149 15.29 1.5924 16.43 2.32907L18.15 3.40157C18.76 3.78074 19.2 4.39824 19.39 5.14574C19.57 5.89324 19.48 6.6624 19.13 7.32324C18.84 7.87574 18.76 8.37407 18.93 8.68824C19.1 9.0024 19.53 9.18657 20.12 9.18657C21.58 9.18657 22.77 10.4757 22.77 12.0574V13.9641C22.77 15.5457 21.58 16.8349 20.12 16.8349C19.53 16.8349 19.1 17.0191 18.93 17.3332C18.76 17.6474 18.83 18.1457 19.13 18.6982C19.48 19.3591 19.58 20.1391 19.39 20.8757C19.21 21.6232 18.77 22.2407 18.15 22.6199L16.42 23.6924C16.04 23.9199 15.63 24.0391 15.21 24.0391ZM12 20.0307C12.89 20.0307 13.72 20.6374 14.29 21.7099L14.4 21.9157C14.52 22.1432 14.72 22.3057 14.96 22.3707C15.2 22.4357 15.44 22.4032 15.64 22.2732L17.37 21.1899C17.63 21.0274 17.83 20.7566 17.91 20.4316C17.99 20.1066 17.95 19.7707 17.8 19.4891C17.23 18.4274 17.16 17.3332 17.6 16.4991C18.04 15.6649 18.95 15.1882 20.09 15.1882C20.73 15.1882 21.24 14.6357 21.24 13.9424V12.0357C21.24 11.3532 20.73 10.7899 20.09 10.7899C18.95 10.7899 18.04 10.3132 17.6 9.47907C17.16 8.6449 17.23 7.55074 17.8 6.48907C17.95 6.2074 17.99 5.87157 17.91 5.54657C17.83 5.22157 17.64 4.96157 17.38 4.78824L15.65 3.71574C15.22 3.43407 14.65 3.59657 14.39 4.07324L14.28 4.27907C13.71 5.35157 12.88 5.95824 11.99 5.95824C11.1 5.95824 10.27 5.35157 9.7 4.27907L9.59 4.0624C9.34 3.6074 8.78 3.4449 8.35 3.71574L6.62 4.79907C6.36 4.96157 6.16 5.2324 6.08 5.5574C6 5.8824 6.04 6.21824 6.19 6.4999C6.76 7.56157 6.83 8.65574 6.39 9.4899C5.95 10.3241 5.04 10.8007 3.9 10.8007C3.26 10.8007 2.75 11.3532 2.75 12.0466V13.9532C2.75 14.6357 3.26 15.1991 3.9 15.1991C5.04 15.1991 5.95 15.6757 6.39 16.5099C6.83 17.3441 6.76 18.4382 6.19 19.4999C6.04 19.7816 6 20.1174 6.08 20.4424C6.16 20.7674 6.35 21.0274 6.61 21.2007L8.34 22.2732C8.55 22.4141 8.8 22.4466 9.03 22.3816C9.27 22.3166 9.47 22.1432 9.6 21.9157L9.71 21.7099C10.28 20.6482 11.11 20.0307 12 20.0307Z" fill="#444444"/>
</svg>
