<svg width="24" height="26" viewBox="0 0 24 26" fill="none" xmlns="http://www.w3.org/2000/svg">
<path d="M12 13.8126C8.83 13.8126 6.25 11.0176 6.25 7.58341C6.25 4.14925 8.83 1.35425 12 1.35425C15.17 1.35425 17.75 4.14925 17.75 7.58341C17.75 11.0176 15.17 13.8126 12 13.8126ZM12 2.97925C9.66 2.97925 7.75 5.04841 7.75 7.58341C7.75 10.1184 9.66 12.1876 12 12.1876C14.34 12.1876 16.25 10.1184 16.25 7.58341C16.25 5.04841 14.34 2.97925 12 2.97925Z" fill="#444444"/>
<path d="M20.5901 24.6458C20.1801 24.6458 19.8401 24.2775 19.8401 23.8333C19.8401 20.0958 16.3202 17.0625 12.0002 17.0625C7.68015 17.0625 4.16016 20.0958 4.16016 23.8333C4.16016 24.2775 3.82016 24.6458 3.41016 24.6458C3.00016 24.6458 2.66016 24.2775 2.66016 23.8333C2.66016 19.2075 6.85015 15.4375 12.0002 15.4375C17.1502 15.4375 21.3401 19.2075 21.3401 23.8333C21.3401 24.2775 21.0001 24.6458 20.5901 24.6458Z" fill="#444444"/>
</svg>
